<svg xmlns="http://www.w3.org/2000/svg" xmlns:xlink="http://www.w3.org/1999/xlink" fill="none" version="1.1" width="45" height="40" viewBox="0 0 45 40"><path d="M5,0L21,40L29,40L13,0L5,0Z" fill="#FF8400" fill-opacity="1"/><path d="M45,0L61,40L69,40L53,0L45,0Z" fill="#FF8400" fill-opacity="1" transform="matrix(-1,0,0,1,90,0)"/><path d="M0,0L6,16L8.5,16L2.5,0L0,0Z" fill="#FDC200" fill-opacity="1"/><path d="M3,8L9,24L11.5,24L5.5,8L3,8Z" fill="#FDC200" fill-opacity="1"/><path d="M40.5,24L46.5,40L49,40L43,24L40.5,24Z" fill="#FDC200" fill-opacity="1" transform="matrix(-1,0,0,1,81,0)"/><path d="M31.5,8L34.5,0L32,0L29,8L31.5,8Z" fill-rule="evenodd" fill="#FDC200" fill-opacity="1"/></svg>