<svg width="409" height="84" xmlns="http://www.w3.org/2000/svg" xmlns:xlink="http://www.w3.org/1999/xlink" overflow="hidden"><g transform="translate(-343 -547)"><path d="M729.109 586.508 708.631 587.275 706.95 594.486 727.427 594.026ZM494.384 586.508 473.906 587.275 472.225 594.486 492.703 594.026ZM744.238 572.394C744.951 572.291 745.893 572.496 747.065 573.007 748.237 573.519 749.026 574.133 749.434 574.848 749.943 575.36 750.351 576.178 750.656 577.303 750.962 578.428 751.064 579.451 750.962 580.372L745.307 606.913 703.893 608.294 702.365 614.891 744.849 613.664 742.404 627.318 678.525 629.312 667.98 630.08C674.195 628.954 677.812 627.727 678.831 626.397L689.681 577.763C689.681 576.945 688.738 576.28 686.854 575.769 684.969 575.258 682.702 574.9 680.053 574.695ZM672.737 572.394 641.867 627.318 611.914 628.238 601.675 628.852C607.177 627.523 610.386 626.091 611.303 624.556L602.898 576.383C601.675 575.564 598.721 574.746 594.034 573.928L602.439 573.621 604.426 573.621 607.024 573.468 617.263 573.161C619.097 573.161 620.599 573.468 621.771 574.081 622.943 574.695 623.732 576.178 624.14 578.53L629.183 608.601 649.202 573.161ZM509.514 572.394C510.227 572.291 511.169 572.496 512.341 573.007 513.512 573.519 514.302 574.133 514.709 574.848 515.219 575.36 515.626 576.178 515.932 577.303 516.238 578.428 516.34 579.451 516.238 580.372L510.583 606.913 469.169 608.294 467.641 614.891 510.125 613.664 507.68 627.318 443.801 629.312 433.256 630.08C439.471 628.954 443.088 627.727 444.106 626.397L454.957 577.763C454.957 576.945 454.014 576.28 452.129 575.769 450.245 575.258 447.978 574.9 445.329 574.695ZM585.364 572.389C587.589 572.533 589.37 573.122 590.708 574.158 592.49 575.539 593.382 577.712 593.382 580.678 593.382 581.19 593.28 582.264 593.076 583.9L584.518 627.318 563.429 628.085 571.376 587.889 550.592 589.577 541.576 629.312 520.487 630.386 511.165 631C513.712 630.489 515.928 629.849 517.812 629.082 519.697 628.315 520.792 627.523 521.098 626.704L532.559 576.536C532.254 575.411 529.248 574.439 523.543 573.621L533.324 573.161 550.287 572.547 550.898 572.547C552.834 572.547 553.802 573.212 553.802 574.542L582.99 572.394C583.831 572.343 584.622 572.341 585.364 572.389ZM440.888 548 400.238 627.318 363.867 628.699 351.794 629.619C357.907 627.676 361.676 625.682 363.103 623.636L353.628 553.983C353.22 553.267 352.099 552.628 350.266 552.066 348.432 551.503 346.343 551.068 344 550.761L353.169 550.455 371.661 549.841C373.189 549.841 374.411 550.301 375.328 551.222 376.245 552.142 376.754 553.216 376.856 554.444L384.497 610.902 416.59 548.921Z" fill="#FF7700" fill-rule="evenodd"/></g></svg>